<?xml version="1.0" encoding="utf-8"?>
<!-- Svg Vector Icons : http://www.onlinewebfonts.com/icon -->
<!DOCTYPE svg PUBLIC "-//W3C//DTD SVG 1.1//EN" "http://www.w3.org/Graphics/SVG/1.1/DTD/svg11.dtd">
<svg version="1.1" xmlns="http://www.w3.org/2000/svg" xmlns:xlink="http://www.w3.org/1999/xlink" x="0px" y="0px" viewBox="0 0 1000 1000" enable-background="new 0 0 1000 1000" xml:space="preserve">
<metadata> Svg Vector Icons : http://www.onlinewebfonts.com/icon </metadata>
<g><path d="M710.8,421.9"/><path d="M544.2,565.4"/><path d="M10,758.6c0.2,0.2,0.4,0.5,0.7,0.7C10.1,759.4,9.9,759.2,10,758.6z"/><path d="M288.5,759.3c0.2-0.2,0.4-0.5,0.7-0.7C289.3,759.2,289.1,759.4,288.5,759.3z"/><path d="M989.9,432.1c0.5,4.3-1.8,5.7-4.9,7C896,476.2,832.4,542.6,777.6,619.3c-31.9,44.7-58.7,92.3-81.3,142.3c-3.9,8.6-5.9,10.1-13.2,2.9c-57.4-56.9-115.1-113.4-172.8-170c-8.3-8.2-16.6-16.5-25.3-24.3c-6.1-5.5-6.8-8.6,1.6-12.5c21.9-10.2,43.8-20.5,65-31.9c9.2-4.9,14.6-3,21.3,3.7c35.8,35.8,72,71.1,108.1,106.6c10.3,10.2,10,10,14.9-3.9c15.8-45.1,39.1-86.6,63.4-127.5c55.1-92.6,116.6-180.8,180.7-267.3c1.9-2.6,3.2-7.3,7-6.4c3.9,0.9,2.6,5.7,3.3,8.8c13.1,63.2,26,126.3,39,189.5C989.5,430.3,989.8,431.4,989.9,432.1z"/></g>
</svg>